<?xml version="1.0" encoding="utf-8"?>
<!-- Generator: Adobe Illustrator 25.2.0, SVG Export Plug-In . SVG Version: 6.00 Build 0)  -->
<svg version="1.1" id="Layer_1" xmlns="http://www.w3.org/2000/svg" xmlns:xlink="http://www.w3.org/1999/xlink" x="0px" y="0px"
	 viewBox="0 0 416.9 94.6" style="enable-background:new 0 0 416.9 94.6;" xml:space="preserve">
<style type="text/css">
	.st0{fill:#5ED08C;}
</style>
<path class="st0" d="M109.8,38.8c-2.1-0.8-3.9-2.1-5.3-3.8c-1.2-1.5-1.8-3.3-1.9-5.2c0-0.3,0.1-0.6,0.3-0.8c0.2-0.2,0.5-0.3,0.8-0.3
	h6.6c0.3,0,0.7,0.1,1,0.2c0.3,0.2,0.6,0.4,0.8,0.7c0.5,0.9,1.3,1.7,2.2,2.2c1.2,0.6,2.6,1,4,0.9c1.6,0.1,3.1-0.3,4.5-1
	c1-0.5,1.6-1.5,1.6-2.5c0-0.7-0.3-1.4-0.8-1.9c-0.7-0.6-1.6-1-2.5-1.3c-1.1-0.4-2.8-0.8-5.1-1.3c-4.2-0.9-7.3-2.1-9.3-3.8
	c-2.1-1.8-3.3-4.4-3.1-7.2c0-2,0.6-4,1.8-5.7c1.3-1.7,3-3.1,5-3.9c2.4-1,5.1-1.5,7.7-1.4c2.7-0.1,5.4,0.5,7.8,1.5
	c2,0.9,3.7,2.2,5.1,3.9c1.1,1.3,1.7,3,1.8,4.7c0,0.3-0.1,0.6-0.3,0.8c-0.2,0.2-0.5,0.3-0.8,0.3h-6.8c-0.3,0-0.7-0.1-1-0.2
	c-0.3-0.2-0.5-0.4-0.7-0.7c-0.3-0.9-0.9-1.6-1.7-2c-2.2-1.1-4.8-1.1-7,0c-0.8,0.5-1.3,1.5-1.2,2.5c0,0.7,0.2,1.3,0.7,1.8
	c0.7,0.6,1.4,1,2.3,1.3c1.5,0.5,3,0.9,4.6,1.2c2.7,0.4,5.2,1.2,7.7,2.2c4.9,2.3,7,8.1,4.6,13c-0.3,0.6-0.6,1.2-1.1,1.7
	c-1.5,1.8-3.4,3.2-5.6,4c-2.6,1-5.4,1.4-8.1,1.4C115.4,40.4,112.5,39.9,109.8,38.8z"/>
<path class="st0" d="M140.8,36.8c-2.4-2.2-3.6-5.5-3.7-9.8v-1.8c0.1-4.1,1.4-7.3,3.8-9.6c2.4-2.3,5.6-3.5,9.7-3.5
	c2.6-0.1,5.2,0.5,7.5,1.8c2,1.1,3.6,2.9,4.6,4.9c1.1,2.2,1.6,4.7,1.5,7.2v1.2c0,0.3-0.1,0.7-0.4,0.9c-0.2,0.3-0.6,0.4-0.9,0.4h-16.6
	V29c0,1.4,0.4,2.8,1.2,4c0.7,1,1.9,1.6,3.2,1.5c0.7,0,1.5-0.2,2.1-0.5c0.6-0.4,1.1-0.8,1.5-1.3c0.2-0.3,0.5-0.5,0.8-0.7
	c0.3-0.1,0.6-0.1,0.9-0.1h6.4c0.3,0,0.6,0.1,0.8,0.3c0.2,0.2,0.3,0.5,0.3,0.8c-0.1,1.2-0.7,2.3-1.5,3.1c-1.2,1.3-2.8,2.4-4.4,3.1
	c-2.2,0.9-4.5,1.4-6.9,1.3C146.5,40.3,143.2,39.1,140.8,36.8z M155,23.4v-0.1c0.1-1.4-0.3-2.8-1.2-4c-0.8-1-2-1.5-3.2-1.5
	c-1.2,0-2.4,0.5-3.2,1.5c-0.8,1.2-1.2,2.6-1.2,4v0.1H155z"/>
<path class="st0" d="M171.7,39.2c-1.4-0.6-2.6-1.6-3.5-2.9c-0.8-1.2-1.3-2.6-1.3-4.1c0-2.3,1.1-4.5,2.9-5.8c2.4-1.6,5.2-2.7,8.1-3
	l6.5-1v-0.7c0.1-1-0.2-2.1-0.8-2.9c-0.8-0.7-1.8-1-2.8-0.9c-0.7,0-1.4,0.1-2,0.4c-0.6,0.3-1.1,0.7-1.6,1.1c-0.3,0.3-0.7,0.6-1.1,0.8
	c-0.1,0.3-0.3,0.4-0.6,0.4h-5.7c-0.3,0-0.6-0.1-0.9-0.3c-0.2-0.2-0.3-0.5-0.3-0.8c0.1-1.2,0.6-2.2,1.4-3.1c1.1-1.3,2.5-2.3,4.1-3
	c2.1-0.9,4.4-1.3,6.7-1.2c4.3,0,7.4,0.9,9.5,2.8c2.1,2,3.2,4.8,3.1,7.6v15.8c0,0.3-0.1,0.7-0.4,0.9c-0.2,0.3-0.6,0.4-0.9,0.4h-6
	c-0.7,0-1.3-0.6-1.3-1.3v-1.8c-0.8,1.1-1.9,2-3.2,2.6c-1.5,0.7-3.2,1-4.9,1C175,40.3,173.3,39.9,171.7,39.2z M183,32.8
	c1.1-1.3,1.6-2.9,1.5-4.6v-0.7l-4.4,0.8c-3.1,0.6-4.7,1.7-4.7,3.3c0,0.8,0.4,1.6,1.1,2c0.8,0.5,1.7,0.8,2.7,0.8
	C180.6,34.4,182,33.8,183,32.8z"/>
<path class="st0" d="M199.2,39.4c-0.3-0.2-0.4-0.6-0.4-0.9V14c0-0.3,0.1-0.7,0.4-0.9c0.2-0.2,0.6-0.4,0.9-0.4h6c0.4,0,0.7,0.1,1,0.4
	c0.2,0.2,0.4,0.6,0.4,0.9v2.1c1.9-2.3,4.7-3.5,7.7-3.4h2.3c0.3,0,0.7,0.1,0.9,0.4c0.2,0.2,0.4,0.6,0.4,0.9v5.4
	c0,0.3-0.1,0.7-0.4,0.9c-0.2,0.3-0.6,0.4-0.9,0.4h-5c-2.2-0.2-4.2,1.4-4.5,3.6c0,0.3,0,0.6,0,0.8v13.3c0,0.4-0.1,0.7-0.4,0.9
	c-0.3,0.3-0.6,0.4-1,0.4h-6.4C199.8,39.8,199.4,39.7,199.2,39.4z"/>
<path class="st0" d="M224.6,37.1c-2.5-2.2-3.9-5.4-3.9-8.8l-0.1-2.1l0.1-2.1c0-3.4,1.4-6.6,3.9-8.8c2.7-2.2,6.1-3.3,9.5-3.2
	c2.6-0.1,5.1,0.5,7.5,1.6c1.8,0.9,3.4,2.2,4.5,3.8c0.9,1.2,1.4,2.6,1.6,4c0,0.3-0.1,0.7-0.3,0.9c-0.3,0.3-0.6,0.4-1,0.4h-6.5
	c-0.3,0-0.6-0.1-0.9-0.3c-0.2-0.2-0.4-0.5-0.6-0.8c-0.3-0.9-0.8-1.7-1.6-2.3c-0.7-0.5-1.6-0.7-2.5-0.7c-2.8,0-4.3,1.8-4.4,5.5
	l-0.1,2l0.1,1.7c-0.1,1.5,0.4,2.9,1.2,4.1c0.8,0.9,2,1.4,3.2,1.3c0.9,0,1.8-0.2,2.5-0.7c0.7-0.6,1.3-1.4,1.5-2.3
	c0.1-0.3,0.3-0.6,0.6-0.8c0.3-0.2,0.6-0.3,0.9-0.3h6.6c0.3,0,0.7,0.1,0.9,0.3c0.3,0.2,0.4,0.5,0.4,0.9c-0.1,1.4-0.6,2.8-1.4,3.9
	c-1.1,1.7-2.7,3-4.5,3.9c-2.4,1.2-5,1.8-7.6,1.7C230.7,40.4,227.3,39.3,224.6,37.1z"/>
<path class="st0" d="M252.3,39.4c-0.3-0.2-0.4-0.6-0.4-0.9V4.1c0-0.4,0.1-0.7,0.4-0.9c0.2-0.2,0.6-0.4,0.9-0.4h6.6
	c0.4,0,0.7,0.1,0.9,0.4c0.2,0.2,0.4,0.6,0.4,0.9v11.6c2.1-2.4,5.1-3.7,8.2-3.5c1.9,0,3.7,0.4,5.4,1.4c1.6,0.9,2.9,2.3,3.7,4
	c1,2,1.4,4.2,1.4,6.4v14.5c0,0.3-0.1,0.7-0.4,0.9c-0.2,0.3-0.6,0.4-0.9,0.4h-6.7c-0.7,0-1.3-0.6-1.3-1.3V24.3
	c0.1-1.4-0.3-2.7-1.2-3.8c-0.9-0.9-2.1-1.4-3.4-1.3c-1.3-0.1-2.6,0.4-3.5,1.3c-0.9,1-1.4,2.4-1.3,3.8v14.2c0,0.3-0.1,0.7-0.4,0.9
	c-0.3,0.2-0.6,0.4-0.9,0.4h-6.7C252.9,39.8,252.5,39.6,252.3,39.4z"/>
<path class="st0" d="M109.8,92.8c-2.1-0.8-3.9-2.1-5.3-3.8c-1.2-1.5-1.8-3.3-1.9-5.2c0-0.3,0.1-0.6,0.3-0.8c0.2-0.2,0.5-0.3,0.8-0.3
	h6.6c0.3,0,0.7,0.1,1,0.2c0.3,0.2,0.6,0.4,0.8,0.7c0.5,0.9,1.3,1.7,2.2,2.2c1.2,0.6,2.6,1,4,0.9c1.6,0.1,3.1-0.3,4.5-1
	c1-0.5,1.6-1.5,1.6-2.6c0-0.7-0.3-1.4-0.8-1.9c-0.7-0.6-1.6-1-2.5-1.3c-1.1-0.4-2.8-0.8-5.1-1.3c-4.2-0.9-7.3-2.1-9.3-3.8
	c-2.1-1.8-3.3-4.4-3.1-7.2c0-2,0.6-4,1.8-5.7c1.3-1.7,3-3.1,5-3.9c2.4-1,5.1-1.5,7.7-1.4c2.7-0.1,5.4,0.5,7.8,1.5
	c2,0.9,3.7,2.2,5.1,3.9c1.1,1.3,1.7,3,1.8,4.7c0,0.3-0.1,0.6-0.3,0.8c-0.2,0.2-0.5,0.3-0.8,0.3h-6.8c-0.3,0-0.7-0.1-1-0.2
	c-0.3-0.2-0.5-0.4-0.7-0.7c-0.3-0.9-0.9-1.6-1.7-2c-2.2-1.1-4.8-1.1-7,0c-0.8,0.5-1.3,1.5-1.2,2.4c0,0.7,0.2,1.3,0.7,1.8
	c0.7,0.6,1.4,1,2.3,1.3c1.5,0.5,3,0.9,4.6,1.2c2.7,0.4,5.2,1.2,7.7,2.2c4.9,2.3,7,8.1,4.6,13c-0.3,0.6-0.6,1.2-1.1,1.7
	c-1.5,1.8-3.4,3.2-5.6,4c-2.6,1-5.4,1.4-8.1,1.4C115.4,94.4,112.5,93.9,109.8,92.8z"/>
<path class="st0" d="M140.7,91.2c-1.9-2.1-2.8-4.9-2.8-8.7V68c0-0.3,0.1-0.7,0.4-0.9c0.3-0.2,0.6-0.4,0.9-0.4h6.5
	c0.4,0,0.7,0.1,1,0.4c0.3,0.2,0.4,0.6,0.4,0.9v14.2c0,3.4,1.5,5.1,4.5,5.1c1.3,0.1,2.5-0.4,3.4-1.4c0.9-1,1.3-2.4,1.2-3.7V68
	c0-0.4,0.1-0.7,0.4-0.9c0.2-0.2,0.6-0.4,0.9-0.4h6.5c0.7,0,1.3,0.5,1.3,1.2c0,0,0,0.1,0,0.1v24.4c0,0.3-0.1,0.7-0.4,0.9
	c-0.2,0.3-0.6,0.4-0.9,0.4h-6c-0.3,0-0.7-0.1-0.9-0.4c-0.3-0.2-0.4-0.6-0.4-0.9v-2c-1.8,2.5-4.7,3.8-8.6,3.8
	C145.4,94.4,142.6,93.3,140.7,91.2z"/>
<path class="st0" d="M175.1,93.1c-1.6-0.6-3-1.6-4.2-2.9c-0.8-0.8-1.3-1.9-1.4-3c0-0.3,0.1-0.6,0.4-0.8c0.2-0.2,0.5-0.3,0.9-0.3h5.9
	c0.2,0,0.4,0.1,0.6,0.3c0.4,0.3,0.7,0.5,0.9,0.7c0.6,0.5,1.3,0.9,2,1.2c0.7,0.3,1.4,0.4,2.1,0.4c0.9,0,1.7-0.2,2.5-0.6
	c0.6-0.3,1-1,1-1.7c0-0.5-0.2-1-0.5-1.4c-0.6-0.5-1.2-0.8-1.9-1c-1.4-0.4-2.8-0.8-4.3-1.1c-2.4-0.4-4.7-1.4-6.6-2.9
	c-1.6-1.3-2.4-3.3-2.3-5.4c0-1.5,0.5-2.9,1.4-4.1c1-1.4,2.4-2.5,4-3.1c2-0.8,4.2-1.3,6.4-1.2c2.2,0,4.4,0.3,6.4,1.2
	c1.6,0.6,3,1.5,4.2,2.8c0.8,0.8,1.3,1.9,1.4,3c0,0.3-0.1,0.6-0.3,0.8c-0.2,0.2-0.5,0.4-0.8,0.4h-5.4c-0.3,0-0.6-0.1-0.8-0.3
	c-0.4-0.2-0.8-0.5-1.2-0.8c-0.5-0.4-1.1-0.7-1.7-1c-0.6-0.3-1.3-0.4-1.9-0.4c-0.8,0-1.5,0.2-2.2,0.6c-0.5,0.4-0.8,1-0.8,1.6
	c0,0.5,0.1,0.9,0.4,1.3c0.5,0.5,1.2,0.8,1.9,1c1.4,0.4,2.8,0.8,4.2,1c3.3,0.6,5.8,1.6,7.4,3.1c2.9,2.7,3.1,7.2,0.4,10.2
	c-0.4,0.5-1,0.9-1.5,1.2c-2.3,1.5-5.5,2.3-9.6,2.3C179.8,94.3,177.4,93.9,175.1,93.1z"/>
<path class="st0" d="M202.2,83.5v-10h-4c-0.4,0-0.7-0.1-1-0.4c-0.3-0.2-0.4-0.6-0.4-0.9V68c0-0.4,0.1-0.7,0.4-0.9
	c0.3-0.3,0.6-0.4,1-0.4h4v-8.6c0-0.4,0.1-0.7,0.4-0.9c0.2-0.2,0.6-0.4,0.9-0.4h6c0.7,0,1.3,0.5,1.3,1.2c0,0,0,0.1,0,0.1v8.6h6.5
	c0.4,0,0.7,0.1,1,0.4c0.3,0.2,0.4,0.6,0.4,0.9v4.2c0,0.4-0.1,0.7-0.4,0.9c-0.3,0.3-0.6,0.4-1,0.4h-6.5v9.2c0,2.6,1,3.8,3,3.8h4
	c0.3,0,0.7,0.1,0.9,0.4c0.2,0.3,0.4,0.6,0.4,0.9v4.5c0,0.3-0.1,0.7-0.4,0.9c-0.2,0.3-0.6,0.4-0.9,0.4H213
	C205.8,93.8,202.2,90.3,202.2,83.5z"/>
<path class="st0" d="M226.1,93.2c-1.4-0.6-2.6-1.6-3.5-2.9c-0.8-1.2-1.3-2.6-1.3-4.1c-0.1-2.3,1-4.5,2.9-5.8c2.4-1.6,5.2-2.7,8.1-3
	l6.5-1v-0.7c0.1-1-0.2-2.1-0.8-2.9c-0.8-0.7-1.8-1-2.8-0.9c-0.7,0-1.4,0.1-2,0.4c-0.6,0.3-1.1,0.7-1.6,1.1c-0.3,0.3-0.7,0.6-1.1,0.8
	c-0.1,0.3-0.3,0.4-0.6,0.4h-5.7c-0.3,0-0.6-0.1-0.9-0.3c-0.2-0.2-0.3-0.5-0.3-0.8c0.1-1.2,0.6-2.2,1.4-3.1c1.1-1.3,2.5-2.3,4.1-3
	c2.1-0.9,4.4-1.3,6.7-1.2c4.3,0,7.4,0.9,9.5,2.8c2.1,2,3.2,4.8,3.1,7.7v15.8c0,0.3-0.1,0.7-0.4,0.9c-0.2,0.3-0.6,0.4-0.9,0.4h-6
	c-0.3,0-0.7-0.1-0.9-0.4c-0.3-0.2-0.4-0.6-0.4-0.9v-1.8c-0.8,1.1-1.9,2-3.2,2.6c-1.5,0.7-3.2,1-4.9,1
	C229.4,94.3,227.7,93.9,226.1,93.2z M237.4,86.8c1.1-1.3,1.6-2.9,1.5-4.6v-0.7l-4.4,0.8c-3.1,0.6-4.7,1.7-4.7,3.3
	c0,0.8,0.4,1.6,1.1,2c0.8,0.5,1.7,0.8,2.6,0.8C235,88.4,236.4,87.8,237.4,86.8z"/>
<path class="st0" d="M253.5,62.4c-0.3-0.2-0.4-0.6-0.4-0.9v-4.7c0-0.3,0.1-0.7,0.4-0.9c0.2-0.2,0.6-0.4,0.9-0.4h6.2
	c0.4,0,0.7,0.1,0.9,0.4c0.2,0.2,0.4,0.6,0.4,0.9v4.7c0,0.3-0.1,0.7-0.4,0.9c-0.3,0.2-0.6,0.4-0.9,0.4h-6.2
	C254.1,62.8,253.8,62.7,253.5,62.4z M253.6,93.4c-0.3-0.2-0.4-0.6-0.4-0.9V68c0-0.3,0.1-0.7,0.4-0.9c0.2-0.2,0.6-0.4,0.9-0.4h6.1
	c0.4,0,0.7,0.1,0.9,0.4c0.2,0.2,0.4,0.6,0.4,0.9v24.4c0,0.3-0.1,0.7-0.4,0.9c-0.2,0.3-0.6,0.4-0.9,0.4h-6.1
	C254.2,93.8,253.8,93.6,253.6,93.4z"/>
<path class="st0" d="M268,93.4c-0.2-0.3-0.4-0.6-0.4-0.9V68c0-0.3,0.1-0.7,0.4-0.9c0.2-0.2,0.6-0.4,0.9-0.4h6c0.4,0,0.7,0.1,1,0.4
	c0.3,0.2,0.4,0.6,0.4,0.9v2c1-1.2,2.2-2.1,3.5-2.8c1.6-0.7,3.3-1,5-1c2.8-0.1,5.5,1,7.4,3.1c1.9,2.1,2.9,5,2.9,8.7v14.5
	c0,0.3-0.1,0.7-0.4,0.9c-0.2,0.3-0.6,0.4-0.9,0.4h-6.6c-0.3,0-0.7-0.1-0.9-0.4c-0.3-0.2-0.4-0.6-0.4-0.9V78.3
	c0.1-1.4-0.3-2.7-1.2-3.8c-0.9-0.9-2.1-1.4-3.4-1.3c-1.3-0.1-2.5,0.4-3.4,1.3c-0.9,1-1.3,2.4-1.2,3.8v14.2c0,0.3-0.1,0.7-0.4,0.9
	c-0.2,0.3-0.6,0.4-0.9,0.4h-6.5C268.5,93.8,268.2,93.6,268,93.4z"/>
<path class="st0" d="M303.7,93.2c-1.4-0.6-2.6-1.6-3.5-2.9c-0.8-1.2-1.3-2.6-1.3-4.1c0-2.3,1.1-4.5,2.9-5.8c2.4-1.6,5.2-2.7,8.1-3
	l6.5-1v-0.7c0.1-1-0.2-2.1-0.8-2.9c-0.8-0.7-1.8-1-2.8-0.9c-0.7,0-1.4,0.1-2,0.4c-0.6,0.3-1.1,0.7-1.6,1.1c-0.3,0.3-0.7,0.6-1.1,0.8
	c-0.1,0.3-0.3,0.4-0.6,0.4h-5.6c-0.3,0-0.6-0.1-0.9-0.3c-0.2-0.2-0.3-0.5-0.3-0.8c0.1-1.2,0.6-2.3,1.4-3.1c1.1-1.3,2.4-2.3,4-3
	c2.1-0.9,4.4-1.3,6.8-1.2c4.3,0,7.4,0.9,9.5,2.8c2.1,2,3.2,4.8,3.1,7.6v15.8c0,0.3-0.1,0.7-0.4,0.9c-0.2,0.3-0.6,0.4-0.9,0.4h-6
	c-0.7,0-1.3-0.6-1.3-1.3v-1.8c-0.8,1.1-1.9,2-3.2,2.6c-1.5,0.7-3.2,1-4.9,1C307,94.3,305.2,93.9,303.7,93.2z M315,86.8
	c1.1-1.3,1.6-2.9,1.5-4.6v-0.7l-4.4,0.8c-3.1,0.6-4.7,1.7-4.7,3.3c0,0.8,0.4,1.6,1.1,2c0.8,0.5,1.7,0.8,2.6,0.8
	C312.6,88.4,314,87.8,315,86.8z"/>
<path class="st0" d="M339.3,90.8v1.7c0,0.3-0.1,0.7-0.4,0.9c-0.2,0.3-0.6,0.4-0.9,0.4h-5.9c-0.7,0-1.3-0.6-1.3-1.3V58.1
	c0-0.4,0.1-0.7,0.4-0.9c0.2-0.2,0.6-0.4,0.9-0.4h6.3c0.4,0,0.7,0.1,0.9,0.4c0.2,0.2,0.4,0.6,0.4,0.9v11.1c2-2.1,4.7-3.2,7.6-3.1
	c3-0.2,6,1,8,3.3c1.9,2.2,3,5.2,3.1,8.9c0,0.4,0,1.1,0,1.9s0,1.4,0,1.8c-0.2,3.9-1.2,6.9-3.1,9c-2.1,2.2-5,3.4-8,3.2
	C344.2,94.4,341.3,93.1,339.3,90.8z M348,85.8c0.8-1.2,1.2-2.6,1.2-4c0.1-0.7,0.1-1.2,0.1-1.6s0-0.9-0.1-1.6c0-1.4-0.4-2.8-1.2-4
	c-0.9-1-2.2-1.6-3.5-1.5c-1.3-0.1-2.6,0.4-3.5,1.4c-0.8,1-1.3,2.2-1.3,3.5V80v2c0,1.4,0.5,2.7,1.3,3.8c0.9,1,2.2,1.6,3.5,1.5
	C345.9,87.5,347.2,86.9,348,85.8z"/>
<path class="st0" d="M363.5,93.4c-0.3-0.2-0.4-0.6-0.4-0.9V58.1c0-0.4,0.1-0.7,0.4-0.9c0.2-0.2,0.6-0.4,0.9-0.4h6.1
	c0.7,0,1.3,0.5,1.3,1.2c0,0,0,0.1,0,0.1v34.3c0,0.4-0.1,0.7-0.4,0.9c-0.2,0.2-0.6,0.4-0.9,0.4h-6.1
	C364.1,93.8,363.8,93.6,363.5,93.4z"/>
<path class="st0" d="M380.2,90.8c-2.4-2.2-3.6-5.5-3.8-9.8v-1.8c0.1-4.1,1.4-7.3,3.8-9.6s5.6-3.5,9.7-3.5c2.6-0.1,5.2,0.5,7.5,1.8
	c2,1.1,3.6,2.9,4.6,4.9c1.1,2.2,1.6,4.7,1.5,7.2v1.2c0,0.3-0.1,0.7-0.4,0.9c-0.2,0.3-0.6,0.4-0.9,0.4h-16.6V83c0,1.4,0.4,2.8,1.2,4
	c0.7,1,1.9,1.6,3.2,1.5c0.7,0,1.5-0.2,2.1-0.6c0.6-0.4,1.1-0.8,1.5-1.3c0.2-0.3,0.5-0.5,0.8-0.7c0.3-0.1,0.6-0.1,0.9-0.1h6.5
	c0.3,0,0.6,0.1,0.8,0.3c0.2,0.2,0.4,0.5,0.3,0.8c-0.1,1.2-0.7,2.3-1.5,3.1c-1.2,1.3-2.8,2.4-4.4,3.1c-2.2,0.9-4.5,1.4-6.9,1.3
	C385.9,94.3,382.6,93.1,380.2,90.8z M394.4,77.4v-0.1c0.1-1.4-0.3-2.8-1.2-4c-0.8-1-2-1.5-3.2-1.5c-1.2,0-2.4,0.5-3.2,1.5
	c-0.8,1.2-1.2,2.6-1.2,4v0.1L394.4,77.4z"/>
<path class="st0" d="M408.1,93.4c-0.3-0.2-0.4-0.6-0.4-0.9v-6.6c0-0.4,0.1-0.7,0.4-0.9c0.2-0.2,0.6-0.4,0.9-0.4h6.6
	c0.7,0,1.3,0.5,1.3,1.2c0,0,0,0.1,0,0.1v6.6c0,0.3-0.1,0.7-0.4,0.9c-0.2,0.3-0.6,0.4-0.9,0.4H409C408.6,93.7,408.3,93.6,408.1,93.4z
	"/>
<path class="st0" d="M49.6,60.1c-16.6,0-30-13.4-30-30s13.4-30,30-30s30,13.4,30,30C79.6,46.6,66.2,60,49.6,60.1z M49.6,5.7
	C36.2,5.7,25.2,16.6,25.2,30c0,13.5,10.9,24.4,24.4,24.4S74,43.5,74,30.1c0,0,0,0,0,0C74,16.6,63.1,5.7,49.6,5.7z"/>
<rect x="-4.3" y="72" transform="matrix(0.6176 -0.7865 0.7865 0.6176 -54.0145 41.4662)" class="st0" width="39.8" height="8.5"/>
<rect x="-5.9" y="71.5" transform="matrix(0.6177 -0.7864 0.7864 0.6177 -50.3914 42.24)" class="st0" width="48.3" height="2.8"/>
<path class="st0" d="M26.1,23.5c0,0,0.9-0.1,1.9,2.7s3,1.6,3.4,2s0.6,1.1,1.6,1.6c0.9,0.5,1.7-0.9,1.3,1.2c0,0.2-0.5,0.2-0.5,0.4
	c-0.1,0.7-0.2,1.3-0.2,1.8c0,0.6,0.5,0.4,0.2,0.8c-0.4,0.5,0.8,1.8,1.6,2.3c0.6,0.3,0.9,0.6,1,1.4c0.1,0.8,0.4,2.1,0.4,2.9
	c0,0.3,0,0.8,0,1.1c0,0.7,0,0.9,0.2,1.4c0.2,0.4-0.3,0.4,0.2,1.6c0.1,0.3,0.5,0.5,0.5,0.8c-0.1,1,1.8,1.8,1.3,0.8
	c-0.3-0.5,0-0.8,0-1.2c-0.1-0.8,0-1.9,0.7-2.9c0.1-0.2-0.2-1.2,0.3-1.2c0.2,0,0.5,0.1,0.8-0.3c0.4-0.5,1-1.5,1.5-1.3
	c1.2,0.5,1.5-1,1.7-1.8c0.1-0.3,0.2-0.7,0.4-1.1c0.2-0.5,0.4-0.9,0.6-1.3c0.3-0.7,1-1.2,0.3-1.5c-0.2-0.1-0.8-0.7-1.3-0.5
	c-0.5,0.2-1-1.2-1.6-1.2c-0.7,0.1-1.2-0.8-1.7-1.3c-0.5-0.5-2.2-1.1-2.8-1.6c-0.4-0.3-0.5,0.7-0.9,0.5c-0.6-0.3-0.3-1-0.9-0.9
	c-1.7,0.3-2.5,1.2-2.9,0.4c-0.4-0.8,0-1.1-0.7-1.7c-0.7-0.6,0.2-1.2-0.5-1.2c-0.8-0.1-1.7,1.4-2.1-0.5s2.4-2,2.4-2
	c0.5,0,1.6,0.2,1.7,0.8c0.2,0.7,0.5,0.7,0.5-0.4c-0.1-0.7,0.4-1.3,1.1-1.5c0.5-0.2,0.1-1.2,2-2.1s1.4-0.5,2-0.6s1.2-0.3,1.1-0.6
	c-0.1-0.2-2.5-0.5-1.8-0.8s3.5-0.3,3.3-1c-0.2-0.7-0.3-2.6-1.5-1.7s0.1-1.3-1.3-0.6s-1.7,2.8-2.4,2.8c-0.7,0,0-0.6-1.5-1.8
	s1.7-2,2.5-1.9c0.8,0.1,1.9-0.2,1.6-0.5s-1.6,0.3-1.7-0.4s-0.4,0.6-1.4,0.5c-1,0-1.6,0.8-2.2,0.4c-0.6-0.4-1-0.8-1.6-0.8
	c-0.3,0-0.5,0-0.8,0c-1.3,1.4-2.5,2.9-3.4,4.6C27.4,19.9,26.6,21.7,26.1,23.5z"/>
<path class="st0" d="M67.3,12.9c-0.2,0.2-0.5,0.3-0.8,0.3C65.9,13,65.9,14,65.4,14s-1.8-0.3-1.6-0.6s1.8-0.6,1.3-0.6s-2.5-1-4.2-0.5
	c-1.1,0.4-2.1,1.2-2.8,2.1c-0.5,0.5-0.3,0.2,1,1.3c1.8,1.3,1.6-2.3,1.9-1.9c0.6,0.8,0,1.3,2,1.5c0.7,0-1.4,1.7-2.4,1.7
	s-0.4-0.3-3.5,0.9s-1.7,0.9-1.7,1.5s0,0.9-0.7,0.8s-1-0.2-0.9,1.2s1.7,1.5,2,0.7s1.4-2.2,2.2-2.1s2,0.5,2.2,1s0.2,1.5,0.3,1.1
	s-0.2-1.3,0-1.9s0.6,0.6,0.8,1.3s0.5,1.4,0.8,0.8s-0.1-1.5,0.5-1.5s1.1,0.9,1.2-0.3s1.3-1.9,2-1s1.6,1.6,0.5,1.6s-3.5-0.3-3.3,0.3
	s1.4,0.9,2.1,1.2s1.1,1.7-1.1,1.3s-2.3,0.5-3.1,0.4c-0.8-0.3-1.5-0.9-2-1.6c-0.1-0.3-3.4-0.8-5.2,0.7s-1.9,2.8-2.2,3.2
	s0.3,1.9,0,2.6s0.2,1.5,1.2,2.6c1,1.1,2.4,0.2,3.6,0.4c1.1,0.2,2.2-0.3,2.2,0.8c0.1,1,0.3,1.9,0.7,2.8c0.5,0.9,0.5,2,0,2.9
	c-0.7,1.6,0.8,3.5,1.2,4.1s0.1,2.1,0.9,2s0.3-0.4,0.8-0.3s3.2-1.7,3.5-2.8s-0.4-1.2,0.3-1.9s1.7-0.7,1.6-2.2c-0.1-1.5-1-2.3-0.2-3.2
	s3.2-2.8,3.3-3.6s0.3-0.6-1-0.4s-1.8,0.5-2.2-0.5c-0.3-1.1-0.8-2.1-1.3-3.2c-0.6-0.9-2.1-3.6,0.7,0s0.7,3.3,2.4,2.9s2.5-0.8,2.5-1.3
	s1.3-0.9,1.1-1.4s-0.9-0.2-1.1-0.6s-1,0.2-1.8-0.6s-1.2-2.3-0.2-1.3s1.7,0.6,2.2,1c0.4,0.3,0.9,0.6,1.4,0.6H74
	c-0.6-2.6-1.5-5.2-2.8-7.6C70.1,16.3,68.8,14.5,67.3,12.9z"/>
<path class="st0" d="M69.6,40.2c0.3-0.8,0.9-1,0.9-1.7s0.3-1.3-0.3-1c-0.6,0.3-1,1-1.5,1s0,0.8-0.1,1.2s-0.7,0.7-0.5,1
	s0.5,1,0.9,0.7S69.6,40.2,69.6,40.2z"/>
<path class="st0" d="M53.9,17.4c0.2,0.2,0.9,0.3,1-0.1s0.1-0.8-0.2-0.7S53.9,17.4,53.9,17.4z"/>
<path class="st0" d="M55.4,15.7c-0.2,0.3-0.2,0.6,0,0.9c0.3,0.4,0.6,0.6,0.2,0.7s-0.7,0.3-0.4,0.5c0.3,0.3,0.7,0.4,1.1,0.2
	c0.3-0.2,0.5-0.5,0.6-0.5s-0.4,0-0.6-0.2s-0.1-0.6-0.1-0.7s-0.6,0.1-0.6-0.1s0.2-0.1,0.2-0.3S55.4,15.7,55.4,15.7z"/>
<path class="st0" d="M52.5,11.2c-0.3,0-0.7,0-1-0.2c-1-0.1-2-0.1-3,0c-0.4,0-0.6,0.4-1,0.4c-0.9-0.3-1.8-0.2-2.6,0.2
	c-1.7,0.6-2.4,0.8-1.6,0.8c0.9,0.1,2.1-0.6,1.9,0.5s-0.7,1.3-0.7,1.6c0,0.3,0.2,1.3,0.8,1.2s1-1.2,1.7-1.2c0.7,0,0.9,0,1.2-0.3
	c0.4-0.4,1-0.7,1.6-0.6c0.9-0.1,1.2-0.1,1-0.3s-1-0.2-1-0.7s0.7,0.3,1,0.1s0.2-0.8,0.5-0.9s0.8-0.1,1-0.4L52.5,11.2z"/>
<path class="st0" d="M51.1,15c0.4-0.1,1.1-0.3,0.9-0.4c-0.3-0.1-0.6-0.1-0.9-0.1c-0.3,0-0.9,0-0.8,0.2S51.1,15,51.1,15z"/>
<path class="st0" d="M43.9,10.8c-1.2,0-2.8-0.5-2.6,0c0.2,0.5,0.6,0.6,0.4,0.6c-0.3,0-0.7,0-0.6,0.2s-0.2,0.6,0.1,0.6
	c0.7,0,1.3-0.1,1.9-0.4c0.6-0.2,1.1-0.4,1.7-0.6c0.2-0.1,0.2-0.3-0.3-0.4L43.9,10.8z"/>
<path class="st0" d="M40.1,14.6c0.1,0.3,0.5,0.1,0.6,0.4s0.4,0.8,0.5,0.6c0.2-0.1-0.2-0.6,0-0.5c0.2,0.1,0.4,0.1,0.5,0
	c0.1-0.1-0.2-0.8,0.1-0.8c0.3,0,0.8,0.3,0.8,0.2s-0.4-0.5-0.4-0.6c0-0.2,0.2-0.3-0.5-0.6c-0.3-0.2-0.7-0.2-1.1-0.2
	c-0.2,0-0.3-0.1-0.6-0.1c-0.3,0-0.5,0-0.7,0s-0.8,0.1-0.5,0.3c0.2,0.2,0.6,0,0.8,0c0.2,0,0.6,0.2,0.5,0.5c-0.1,0.3,0.5,0.5,0.1,0.5
	C40.4,14.3,40.2,14.4,40.1,14.6z"/>
<path class="st0" d="M33,13c0.6-0.3,0.5-0.5,1.5-0.3c0.5,0.1,0.9,0.2,1.4,0.3c0.2,0,0.5,0.1,0.5,0.3c0,0.2-0.2,0.4-1,0.4
	s-0.7,0.2-1,0.2c-0.3-0.1-0.5-0.1-0.2-0.4s0.3-0.4-0.1-0.4c-0.3,0-0.4,0.1-0.8,0.1C33.2,13.2,33.1,13.1,33,13z"/>
</svg>
